<?xml version="1.0"?>
<svg version="1.1" id="Layer_1" xmlns="http://www.w3.org/2000/svg" x="0" y="0" viewBox="0 0 100 100" xml:space="preserve"><g><path d="M57.1 60.7c-1.2 0-2.3-.6-2.9-1.7-.9-1.6-.4-3.7 1.2-4.6C57 53.5 58 51.8 58 50s-1-3.5-2.6-4.4c-1.6-.9-2.2-3-1.2-4.6.9-1.6 3-2.2 4.6-1.2 3.6 2.1 5.9 6 5.9 10.2s-2.3 8.1-5.9 10.2c-.6.3-1.1.5-1.7.5z" fill="#f0af6b"/></g><path d="M44.2 24.3L28.7 36.6l-.3.3H11.9c-1.1 0-1.9.9-1.9 1.9v22.3c0 1.1.9 1.9 1.9 1.9h16.4l.3.3 15.5 12.4c1.3 1 3.1.1 3.1-1.5V25.8c.1-1.6-1.7-2.5-3-1.5z" fill="#333"/><metadata xmlns:d="https://loading.io/stock/"><d:name>volume</d:name><d:tags>sound,speaker,quiet,silence,voice,hear,listen,broadcast,volume,web application</d:tags><d:license>by</d:license><d:slug>5hh7nr</d:slug></metadata></svg>